<svg version="1" xmlns="http://www.w3.org/2000/svg" width="933.333" height="933.333" viewBox="0 0 700.000000 700.000000"><path d="M328.5 1.1C168.6 9.8 39.6 120 8 275-5.8 342.8-.5 414.7 23.1 477.9 64.3 588.1 158.5 668.2 275 692c49.2 10 100.8 10 150 0 135.9-27.7 239.3-131.1 267-267 10-49.2 10-100.8 0-150C664.3 139.1 560.9 35.7 425 8c-19.2-3.9-34.3-5.8-55.8-7-19.3-1.1-20.3-1.1-40.7.1zm53 32c55.1 4.5 110.7 24.7 155.5 56.4 14.2 10.1 23.2 17.6 36.9 31 46.7 45.4 76.7 102.1 89.1 168.2 6.9 37.1 6.9 85.5 0 122.6-15.4 82.1-59.7 152.1-126 199.2-43.7 31-95.3 50.1-151.2 56.1-28.9 3.1-69.3 1.6-97.1-3.6-82.1-15.4-152.1-59.7-199.2-126-26-36.7-43.8-79.3-52.5-125.7-6.9-37.1-6.9-85.5 0-122.6 12.4-66.1 42.4-122.8 89.1-168.2 29.4-28.6 60.5-49.1 98-64.5 49.3-20.3 99.5-27.6 157.4-22.9z"/><path d="M190 350v191h92l.2-119.1.3-119.1 67.7 118.9 67.6 118.8 46.1.3 46.1.2V159h-92l-.2 118.9-.3 118.9L350 277.9l-67.5-118.8-46.2-.1H190v191z"/></svg>