<svg xmlns="http://www.w3.org/2000/svg" viewBox="0 0 48 48"><defs><linearGradient id="a" x2="0" y1="542.8" y2="503.9" gradientUnits="userSpaceOnUse"><stop stop-color="#79a8ca"/><stop offset="1" stop-color="#9ecbda"/></linearGradient><linearGradient id="e" x2="0" y1="531.8" y2="514.8" gradientUnits="userSpaceOnUse"><stop stop-color="#f2f6f7"/><stop offset="1" stop-color="#ecf0f1"/></linearGradient><linearGradient id="f" x2="0" y1="530.8" y2="516.8" gradientUnits="userSpaceOnUse"><stop stop-color="#2566d3"/><stop offset="1" stop-color="#429aff"/></linearGradient><linearGradient id="b" x1="396.6" x2="396.6" y1="540.8" y2="513.8" gradientUnits="userSpaceOnUse"><stop stop-color="#11aa43"/><stop offset="1" stop-color="#5be654"/></linearGradient><linearGradient id="c" x2="0" y1="44" y2="15" gradientUnits="userSpaceOnUse"><stop stop-color="#f3b200"/><stop offset="1" stop-color="#fee145"/></linearGradient><linearGradient id="d" x2="0" y1="519.8" y2="503.8" gradientUnits="userSpaceOnUse"><stop stop-color="#f23b2a"/><stop offset="1" stop-color="#fd5757"/></linearGradient></defs><g transform="matrix(1.2 0 0 1.2 -466.3 -604.4)"><rect width="38" height="38" x="389.6" y="504.8" fill="url(#a)" rx="19"/><path fill="#649cc1" d="M409 514.5a.5.5 0 1 0 0 1h17.2l.2-.7-.8-.3" opacity=".8"/><g fill-rule="evenodd"><path fill="url(#b)" d="M392.6 511.8a19.9 19.9 0 0 0 16 32l7-14.3-13-2.7z"/><path fill="url(#c)" d="M25 15l6 14.6L24 44a20 20 0 0 0 17.9-29z" transform="translate(384.6 499.8)"/><path fill="url(#d)" d="M408.6 503.8a20 20 0 0 0-16 8l10 15 13 2.6-6-14.6h16.8a20 20 0 0 0-17.8-11"/></g><rect width="18" height="18" x="399.6" y="514.8" fill="url(#e)" rx="9"/><rect width="14" height="14" x="401.6" y="516.8" fill="url(#f)" rx="7"/></g></svg>