<svg xmlns="http://www.w3.org/2000/svg" xmlns:xlink="http://www.w3.org/1999/xlink" viewBox="0 0 64 64"><path fill="#699635" d="M61 20.9L42.4 4A126.8 126.8 0 0 1 3.3 39L2 44.5 21.2 62A127.4 127.4 0 0 0 62 28.5l-1-7.6"/><path fill="#83bf4f" d="M22.4 54.6L3.5 37.3A115 115 0 0 0 42.1 2L61 19.3a115 115 0 0 1-38.6 35.3"/><g fill="#699635"><path d="M20.8 50.8L8.2 39.3l.8-.5c.8-.5 1-1.4.3-2.1l-.6-.6A115.2 115.2 0 0 0 41 6.7l.6.6c.7.6 1.7.5 2.3-.2l.5-.7L57 17.9l-.5.7a2 2 0 0 0 .2 2.6l.6.6A116.4 116.4 0 0 1 25 51.1l-.6-.6c-.7-.6-1.9-.7-2.8-.2l-.8.5m-9.9-11.4l10.3 9.4c1.3-.4 2.8-.3 4 .3A114.4 114.4 0 0 0 55 21.8a4 4 0 0 1-.3-3.7L44.4 8.7c-.9.8-2.2.9-3.3.3a113 113 0 0 1-29.8 27.4c.6 1 .5 2.2-.4 3"/><path d="M20 37.3c1.1-.4 2.3-.3 3.1.4l-1.6 1.2c-.2-.2-.7-.2-.9 0-.3.2-.4.5-.1.7.2.2.7.2 1 0 1.2-.8 2.9-.9 3.8 0 .7.7.8 1.7.1 2.5l.6.5-1.5 1-.6-.5c-1.1.3-2.3.2-3-.5l1.7-1.1c.2.2.7.2 1 0 .3-.2.3-.5.1-.7-.2-.2-.6-.2-.9 0-.7.5-1.6.7-2.4.6-.6-.1-1.1-.3-1.5-.6-.7-.7-.7-1.6-.1-2.4l-.5-.5 1.5-1c-.1.1.1.2.2.4m23.2-21.4c.9-.6 2-.6 2.7.1l-1.2 1.5a.5.5 0 0 0-.8.1c-.2.3-.2.7 0 .9s.6.2.8-.1c.9-1.1 2.4-1.3 3.3-.5.7.7.9 1.8.5 2.8l.6.5-1.1 1.4-.6-.5c-.9.5-1.9.5-2.6-.2l1.3-1.5c.2.2.6.2.8-.1s.2-.7 0-.9a.5.5 0 0 0-.8.1c-.5.6-1.3 1-2 1-.5 0-1-.2-1.4-.5-.7-.7-.9-1.7-.5-2.7l-.5-.5 1.1-1.4c0 .2.2.3.4.5m-3 19.6a9 9 0 0 1-11.7 0c-3.1-2.9-2.9-7.4.3-10.3 3.2-2.9 8.2-3.2 11.3-.3a7 7 0 0 1 .1 10.6"/></g><path fill="#ffdd7d" d="M21.8 24.5l18.9 17.3c2.2-1.8 4.2-3.7 6.2-5.7L28.1 18.8l-6.3 5.7"/><path fill="#dbb471" d="M40.8 49.4l6.2-5V36c-2 2-4.1 3.9-6.2 5.7v7.7"/><path id="a" fill="#8d9998" d="M12.1 24.7c1.1-.4 2-1 2.9-1.7l2.6-2.2c.9-.7 1.8-1.5 2.8-2 1-.6 2.3-.9 3.4-.7-1.1.2-2.1.7-3 1.4l-2.6 2.1c-.9.7-1.8 1.5-2.8 2.1-1 .6-2.2 1-3.3 1"/><path fill="#e8e8e8" d="M39.8 33.1s4.9 1.4 16.3-1.6 6 29.8-14.8 29.8c-2.3 0-2.4-2.9 4-8.1 0 0-9 2.1-5.1-4.6 0 0-6.4 1.1-3.5-4 0 0 1.3-3.8.1-8.1.1 0 .8-2.2 3-3.4"/><g fill="#d1d1d1"><path d="M61.5 34.7c.2 8.8-6.8 23.4-20.7 23.4h-.2c-1.3 2.1-.7 3.3.7 3.3 15.8-.1 22.7-18.9 20.2-26.7"/><path d="M54.3 39.5c-3 10.8-15 11.7-15 11.7-.5 2.3.5 3.3 1.8 3.3 4.4.1 12.6-7.2 13.2-15m-8.4 0c-7.1 10-9.6 6.3-9.6 6.3-1.8 4 2.9 4 3.7 3.1 2.3-2.5 6-7.7 5.9-9.4"/></g><path fill="#8d9998" d="M40.5 58.4c1.2-1.6 2.7-2.9 4.2-4.2l4.5-4c1.4-1.4 2.8-3 3.8-4.8 1-1.8 1.5-3.9 1.3-5.9-.2 2-.9 3.9-2 5.5a32.3 32.3 0 0 1-3.8 4.5l-4.3 4.2a15.4 15.4 0 0 0-3.7 4.7m-1.2-7.2c.4-1.1 1-2 1.7-2.9l2.2-2.6c.7-.9 1.5-1.8 2-2.8.6-1 .9-2.3.7-3.4a6.9 6.9 0 0 1-1.4 3l-2.1 2.6c-.7.9-1.5 1.8-2.1 2.8-.6 1-1 2.2-1 3.3"/><path fill="#e8e8e8" d="M30.2 24.2s-1.4-4.9 1.6-16.3S2 1.9 2 22.7c0 2.3 2.9 2.4 8.1-4 0 0-2.1 9 4.6 5.1 0 0-1.1 6.4 4 3.5 0 0 3.8-1.3 8.1-.1 0-.1 2.2-.8 3.4-3"/><g fill="#d1d1d1"><path d="M28.6 2.5C19.8 2.3 5.2 9.3 5.2 23.2v.2c-2.1 1.2-3.2.7-3.2-.7C2 6.9 20.8 0 28.6 2.5"/><path d="M23.8 9.7c-10.8 3-11.7 15-11.7 15-2.3.5-3.3-.5-3.3-1.8-.1-4.4 7.2-12.6 15-13.2m0 8.4c-10 7.1-6.3 9.6-6.3 9.6-4 1.8-4-2.9-3.1-3.7 2.5-2.3 7.7-6 9.4-5.9"/></g><path fill="#8d9998" d="M4.9 23.5c1.6-1.2 2.9-2.7 4.2-4.2l4-4.5c1.4-1.4 3-2.8 4.8-3.8 1.8-1 3.9-1.5 5.9-1.3-2 .2-3.9.9-5.5 2a32.3 32.3 0 0 0-4.5 3.8l-4.2 4.3a16.7 16.7 0 0 1-4.7 3.7"/><use xlink:href="#a"/></svg>