<svg xmlns="http://www.w3.org/2000/svg" viewBox="0 0 48 48"><defs><linearGradient id="e" x1="-226.8" x2="-170.4" gradientUnits="userSpaceOnUse"><stop stop-color="#de4000"/><stop offset="1" stop-color="#fab600"/></linearGradient><linearGradient id="d" x1="-335.9" x2="-269" y1="120.5" y2="82.5" gradientUnits="userSpaceOnUse"><stop stop-color="#ec3a00"/><stop offset="1" stop-color="#ffb900" stop-opacity="0"/></linearGradient><linearGradient id="f" x1="-262.7" x2="-132.2" y1="196.2" y2="241.3" gradientTransform="matrix(1 0 0 1.0085 2.7 1.2)" gradientUnits="userSpaceOnUse"><stop stop-color="#f24d00"/><stop offset="1" stop-color="#ffb000"/></linearGradient><linearGradient id="c" x1="276.1" x2="263.7" y1="521.3" y2="24.9" gradientUnits="userSpaceOnUse"><stop stop-color="#fc5500"/><stop offset="1" stop-color="#ffc200"/></linearGradient><linearGradient id="a" x2="0" y1="537.6" y2="494" gradientUnits="userSpaceOnUse"><stop stop-color="#178aff"/><stop offset="1" stop-color="#1bbded"/></linearGradient><linearGradient id="b" x1="395.9" x2="396.1" y1="539.1" y2="513" gradientUnits="userSpaceOnUse"><stop stop-color="#5043e2"/><stop offset="1" stop-color="#418dff"/></linearGradient></defs><g fill="url(#a)" transform="translate(45.5 -3.6) scale(.12911)"><circle cx="396.6" cy="526.6" r="13.4" fill="url(#b)" transform="translate(-5347 -6674.1) scale(13.0743)"/><path fill="#272370" d="M-161 35.2c-22.1 0-43.2 4.3-62.7 11.7-1.4 1.3-3.2 2.3-4.7 2.2l-.6-.3c-9.6 4-18.7 9-27.3 14.6 1.1 1.8 1.4 3.8-.9 4.8-.4.2-5.2.7-7 .6a175.1 175.1 0 0 0-56.8 69.8l.6-.1c1.9 0 4.7.5 6.5 1 1.7.3 3 1.4 4.5 1.5 4.2.3 5.2-3 8.6-4.7 3.5.5 5.8-.6 9-.3 2.1.3 3.7 2.6 5.4 2.7 1.4.1 2.6-1.3 4-1.1 1.3.2 3.6 3 3.8 4.7.3 2-1.4 3.9-.9 6 2.2 2.2 6 2.7 9 4 2-1.7.3-4.7 0-7 0-1 .2-2 0-3-.1-1.6-.8-3-.9-4.5 0-6.4 5.2-9.4 9.5-11.9 1.9-1.1 3.3-3 5-3.8 2.2-1.2 4-1.4 5.8-2.5 3.4-2 6.3-3.5 9-5.6 1.2-3 .1-6.8.2-9.7 1.3-.8 2.3.3 3.6.2 2-.4 2.3-3.3 3.4-4.5.7-.6 2.6-1.1 3.4-1.8 2-1.6 2.7-4 4.5-4.7.6-.3 2.1-.2 3.1-.5 1.4-.3 3.3-1.9 5.4-2.6 1.5-.5 4.7-.6 5.2-1.2.7-.6 0-2.5.3-3.6 1-5 8.7-6.1 13.2-7.8 3.2-1.2 6.5-3.4 10-2.8-.8 2.5-4 1.6-3.4 4.5.7 4.1 6.2-1.1 7.6-1.7 2.8-1.2 7.5-1.9 11-3.2 3.2-1.2 8.9-3 5.9-6.5-2.5-.2-3.7 2.9-5.8 3.8-1.5.2-1.2-1.2-2.5-1.4-1.2-.1-2 1.2-3.2 1-1.2-.3-3-2.2-3.1-3.7-.5-3.7 3.1-5.3 4.7-8-1-3.5-5.7-.8-8.6-2.1.3-2 2.4-3.4 4.7-3.8 2-.3 6.3-.2 7.5.9.7.5 0 2 1.1 2.9 1.2 1 2.6 1 4 .7.6-2.6-3.3-2-2.9-3.6 3-2 8-.4 11.7-1 2.2-.3 4.4-1.8 6.3-2.8 1.8-1 4.2-2.9 6.1-1.2.5 1.9-1.7 2.5-2.7 3.4a77 77 0 0 0-9.7 10.1c1.7 1.6 4.7.8 7.5 1.1l3.6.7c1.3.3 2.7.2 3.8.5 1.9.4 2.4 2.5 4.3 2.5 3 0 3-3.4 1.3-5.5.6-2 1.4-3.2.7-4.7-1.4-2.8-6.5-.1-6.7-3.6-.2-2.2 1.8-2.1 2.6-3.8-.3-4.3 3.6-4.7 3.2-8.5-.2-1.7-1.6-1.7-2.7-3.2-.6-.8-.9-2.2-1.5-2.8-5.3-.5-10.6-.8-16-.8m-90.5 35.4c1 .2 2.3 1.3 3.6 1.4 1.2 0 2.1-.7 2.9-.5 1.9.5 2.7 3.4.9 4.8-1.5.1-2-.7-3.2-.5-3 .5-4.2 6.5-6.5 6.3-2.1-.2-3.3-5.4-1.1-7 .1-1.3-1-1.6-1-3 .7-.7 2.6-1.6 4.4-1.5m-10.2.7a2 2 0 0 1 1.4.5c-.3 2.4-2.2 2.2-4 3.3-3.3 2-5.1 4.9-6.1 9-.3 1.2-3.5 4.4-5 4-3.6-.7 1-7.2 1.8-8.2.9-1.2 2.1-2.1 3.2-3.4 1-1.2 1.7-3 2.6-3.6 1.1-.8 4.2-1.7 6.1-1.6m26.7 8.1c1.1 0 2.1.2 2.6.7-.7 3-7.1 2.2-9.5 1 .2-1 2-1.3 3.4-1.5l3.5-.2m-14.6 5.5c.7 0 1.5.1 2.3.4a21 21 0 0 1-7.8 3.8c-1.8.5-4.7 1.2-5-.7-.4-2.3 2.5-1.8 4-2 2-.3 4.2-1.4 6.5-1.5m223.5 13.3c-.2.7-.4 1.3-.4 2 .1 1 1.3 2 1.6 3.5.1.8-.4 2.5 0 3.2 1 2.1 4 .6 6 .7-2.4-3.2-4.7-6.4-7.2-9.4m11.5 15.5c-.3 1.6-1.3 3.6-2.2 4.9-2 3-4.6 3.1-7.4 4.7-2.4 1.3-3.4 3.6-4.8 5.9-1.5 2.5-2.4 4-1.8 7.6-2 4-5 6.4-9.2 8.3-1.2.6-2.9.8-4 1.6-1 .6-1.4 2.4-2.7 3.8-1.6 1.8-3.3 2.5-4 3.9-.7 1-1 3-1.7 4.5-1 1.8-3 2.8-4.2 4.7-.6.9-1 2.7-1.6 3.8-1.4 2.6-3.9 4.5-3.6 6.8.2 2.2 2.7 2.6 3 4.5 0 1-.8 1.7-.8 3 0 1.6 1.2 2.9 1.4 4.2.3 3.3-1.2 4.7-1.8 7-.3 1-.2 2.3-.4 3.1-.6 1.7-3 3.2-3 5.2 0 1.4 1.5 2.5 1.6 4.5 0 1.3-.7 2.8-.4 4 .4 2.5 4.8 5.3 6.7 7.2 2.6 2.6 5.9 4.6 7 7.2 1 2.3 1 5.3 2.7 7 1.3 1.3 3.5 2 5.2 3.4l5 3.6c2.7 2.1 6.8 6.4 11.2 6 2.2-.1 4.6-2 7.2-2.4 2.6-.5 6-.8 8.7-.5 2.1.2 4.2 1.5 6.4 1.4 2.2-.2 4.8-1.8 7.4-3 2-.9 4.6-1.9 7.3-2.6a175 175 0 0 0-27.2-123.3m-290.3 59c-3.7.2-6.2.4-8.3 1.3-4.9 2.3-4 8.8-8.8 10.4-1.7.5-4 .6-5.8 1-1.6.2-3.6 1-5.2 1-.5 0-1.1-.3-1.7-.5-.4 3.1-.8 6.2-1 9.3 4.6 1 7 7 11 9.1 1.2.6 2.6.6 4 1 1.2.2 2.1.7 3.3 1 2.3.8 5.3.7 7.2 1.6 2.8 1.3 5 6.7 7.4 8.1.1 1.5-.3 3.4.2 4.5 1.2 1.6 2.8 1.2 4.7 2.2 2.3 1.3 3 4.5 5.2 5.5.8.3 2.7.3 3.9.6 3 1 4 4.4 6.5 3.6 1.6-.5 1.5-2.2 1.8-3.8 1-1.2 2.3-3.1 4-3.1 2.8-.2 3 2.8 4 5.6.7 1.5 2.2 2.8 2.6 4.4a42 42 0 0 1-.3 12.9c-.7 2-3.5 3-5.2 5.2-.8 1-1.2 2.6-1.8 3.4-1 1.3-2.7 1.6-3.5 2.9-.5.7-1 2.2-1.4 3.1-1.4 2.9-3.2 5-2 8.4.4 1.4 2.6 2.3 2.6 4 0 2-4.1 3.7-4.4 5.8-.3 1.6 1.3 4.5 1.8 6.6.3 1.5 3.3 2.5 4.2 3.6 1.6 1.7 2.9 4.3 4.3 6.5 2.9 4.4 5.1 9.7 7.9 14 1.5 2.2 3.5 4.2 4.5 6.5.5 1.1.4 2.5.9 3.6 1.6 3.6 8.7 7.4 12.4 9.2 1.7.8 3.6 1.1 5.1 2 2.4 1.3 7.2 5 8.4 7 1 1.9 1.7 6.5 2.2 9.4.7 4 0 7 .2 11.3.2 2.3 1 4.7 1 7 0 .8-.5 1.4-.5 2.2v.4a175.4 175.4 0 0 0 86.5 15.1c.2-.3.3-.7.6-1 1-1.4 2-2.6 2.7-3.8.7-4.1-1.7-7-.7-10.6 1-4 6.7-6.5 10.6-8.3 1.3-.6 2.7-1.7 3.8-2 2.7-1 6.1-.5 8.6-1.4 4.2-1.5 4.6-6 6.7-9.9 1-1.8 2.3-3.6 2.5-5 .2-1-.4-2.2-.2-3.6.2-1.3 1.4-2.5 1.8-4 .4-2 .7-4.8.7-7 0-1.7-.9-3.3-1-5-.2-5.8 2.2-6.4 4.3-9.6 1.1-1.6 1.5-3.4 2.3-4.5 3.6-5.4 9.9-8 9.4-16.2-.1-2.7-1.8-8.8-3.8-9.7-1.2-.5-3.8 0-5.4-.7-5.3-2-8.5-8.5-14-9-1.1 0-2.2.5-3.6.5-2.1-.1-5.4-1.5-7.8-1.8-1.6-.2-3.6.5-4.5 0-1.5-.7-1.6-3.3-2.7-4-1-.7-2.7-.9-4-1.4-2.3-.9-4-1.9-6.6-2-.8 0-1.8.3-2.7.2-1.4-.2-2.5-2-3.8-2.7-1.7-1-3.2-1.5-3.9-2.9 1.5-4.8-2.6-6.2-3.6-9-.4-1.3-.2-2.9-.6-4-.6-1.7-2.3-2.7-4.1-4.1-3.3-2.5-6.1-4.9-10.8-5.4-2-.3-4 .6-6.6.4-2.6-.1-5.9-2.4-7.8-4.7-2-2.2-2.9-4.1-4.5-5.2-1.6-1-3.7-1-4.7-2-.5-.4-.4-1.2-1-2.2-.7-1.7-2-2.6-1-4.5-1.9-1-2 1.7-3.9 1.3-1.7-2.5-3.2-3.6-7.2-2.9-1.8.3-2.8 2.6-5 2.7-1.7.1-3-2-5.3-2.3-1.8-.2-3.7.5-5 .3-1.9-.4-2.5-2-4.3-3.2a16 16 0 0 0-4.5-2.2c-2.2.1-3.8 4.8-7 3.1-1.5-1.9 2.5-2.9.7-4.7-1.3-1.4-2.5.6-3.6 1.4-1.2.8-2.4 1.7-3.8 2.2-3 1.2-5 .5-7.4 1.8-2.3 1.2-2.4 3-3.6 5.4-1 1.9-3.4 4.6-5 4.7-1.9.2-3.7-2.6-5.4-3.3-5.1-2.3-7.6 2-12 2-3.9.2-9.6-6.4-9.4-10.1 0-2.3 1.4-5.8 1.6-8.6.3-2.2 1.8-3.6 1.8-5.6 0-2.8-3.6-4.9-5.4-5.2-4.2-.8-10 1.7-14.8-.2-1-1.6 1-2.6 1.5-4.1.3-.8.2-2 .5-2.9.5-1.4 2-2.5 2.7-4 .5-1.2.6-2.9 1.1-4.3.6-1.7 1.7-2.7 1.8-3.9a5 5 0 0 0-1.6-4.2m60.2 47.6c1.5.1 1.7 3.3.1 3.6-1.7.2-2.5-2.7-.9-3.4.3-.2.6-.2.8-.2" opacity=".4"/><path fill="url(#c)" d="M532.6 174l-6.2 39.7s-8.8-73.4-19.7-100.8c-16.5-42-24-41.7-24-41.7 11.1 28.3 9.1 43.4 9.1 43.4S472.1 61 420.1 44c-57.7-18.9-88.8-13.7-92.4-12.7H326h1.2v.1c.2.3 63.7 11.1 75 26.6 0 0-27 0-53.8 7.7-1.2.3 98.7 12.5 119.1 112.3 0 0-11-22.8-24.5-26.7 9 27.1 6.6 78.5-1.9 104-1 3.4-2.2-14.1-18.9-21.7 5.4 38.4-.3 99.2-27 116-2 1.3 16.8-60 3.9-36.3-74.4 114-162.2 52.6-201.7 25.5 20.2 4.4 58.6-.6 75.6-13.3h.1c18.5-12.7 29.4-21.9 39.3-19.7 9.8 2.2 16.3-7.7 8.7-16.4a51 51 0 0 0-51.3-14.3c-17.7 4.6-39.7 24.2-73.2 4.4-25.7-15.2-28.1-27.9-28.3-36.7.6-3 1.4-6 2.4-8.6 3-8.3 11.9-10.8 16.9-12.7a79 79 0 0 1 23.4 8v-9.8c.7-1.5.3-5.9-1-11.2-.6-5.4-1.7-11-3.4-16l.2-.2.1-.2c.5-2.4 6.3-7 13.4-12 6.4-4.5 14-9.3 19.8-13 5.3-3.2 9.3-5.6 10.1-6.3l1.1-.8.3-.2.1-.1a21 21 0 0 0 8-15.4v-1.9a34 34 0 0 0-.1-5.3 3 3 0 0 0-.2-.7c-1-2.1-4.4-3-18.5-3.2h-23.2c-17.3 0-26.9-17-30-23.5a69.5 69.5 0 0 1 36.3-51c.4-.2.3-.4-.1-.5 3.9-2.3-47 0-70.4 29.7A114.7 114.7 0 0 0 99 86.8c-3-.1-6.7-.5-11.2-1.4-10.4-9.4-25.2-26.8-26-47.5h-.1v-.5S30 61.7 34.6 128v3a83 83 0 0 0-13.2 23.5 293 293 0 0 0-21.4 74s4.4-13.9 13.2-29.6c-6.5 19.8-11.6 50.6-8.6 96.8 0 0 .8-10.3 3.6-25 2.2 28.6 11.7 64 35.9 105.6C90.4 456 161.6 496.5 240.3 502.7a268.6 268.6 0 0 0 46.4-.3c16-1 32.3-3.5 48.5-7.4 221.5-53.6 197.4-321 197.4-321" transform="matrix(.6971 0 0 .69604 -352.6 42.2)"/><g fill-rule="evenodd"><path fill="url(#d)" d="M-328.7 133.5c9.4-17.4 18.3-28.9 37.5-32.3C-302 91-305 85.2-310 67.5c-19.2 20.8-19.1 42.5-18.6 66"/><path fill="url(#e)" d="M-208.7 177.1c11.3-14.8 46.4-22.8 36-43.1-24.1-6.2-39.3 5.3-48.9-17.4-8.3 32 2.9 47.4 13 60.5"/><path fill="url(#f)" d="M-228.8 198c-47.3 4.7-39.2 30-35.8 55.5l12-10.1c8.6 24.7 58.7 20.7 86.5 12 12.7-3.8 24-2.9 28.9-.9 13.8 3 12.8-8.7 6.8-12.2-33-37.6-63.5 34.7-104.2-26.7-2.5-3.7 0-9.9 5.8-17.6"/></g></g></svg>