<svg xmlns="http://www.w3.org/2000/svg" xmlns:xlink="http://www.w3.org/1999/xlink" width="32" height="32" viewbox="0 0 32 32"><defs><linearGradient id="f"><stop offset="0" stop-color="#f4e3c1" stop-opacity="0"/><stop offset="1" stop-color="#c29c4f"/></linearGradient><linearGradient id="e"><stop offset="0" stop-color="#5e2f00"/><stop offset="1" stop-color="#914900"/></linearGradient><linearGradient id="d"><stop offset="0" stop-color="#994d00"/><stop offset="1" stop-color="#994d00" stop-opacity="0"/></linearGradient><linearGradient id="c"><stop offset="0" stop-color="#f4e3c1"/><stop offset="1" stop-color="#eaca88"/></linearGradient><linearGradient id="a"><stop offset="0" stop-color="#47ad27"/><stop offset="1" stop-opacity="0"/></linearGradient><linearGradient id="b"><stop offset="0" stop-color="#47ae27"/><stop offset="1" stop-opacity="0"/></linearGradient><radialGradient id="l" cx="63.3" cy="20.4" r="2.8" fx="63.3" fy="20.4" gradientTransform="matrix(2.14533 0 0 2.73375 -113 -37)" gradientUnits="userSpaceOnUse" xlink:href="#a"/><radialGradient id="k" cx="54.6" cy="20.4" r="2.8" fx="54.6" fy="20.4" gradientTransform="matrix(2.0747 0 0 2.53584 -98.4 -33)" gradientUnits="userSpaceOnUse" xlink:href="#b"/><radialGradient id="j" cx="60.1" cy="24.8" r="13.9" fx="60.1" fy="24.8" gradientTransform="matrix(1.03827 0 0 .97718 -42.6 -.4)" gradientUnits="userSpaceOnUse" xlink:href="#c"/><radialGradient id="i" cx="59.9" cy="15" r="16.6" fx="59.9" fy="15" gradientTransform="matrix(2.97256 0 0 2.11212 -158 -19.5)" gradientUnits="userSpaceOnUse" xlink:href="#d"/><linearGradient id="g" x1="45.6" x2="44.8" y1="26.5" y2="13.2" gradientTransform="translate(-40.3 -1)" gradientUnits="userSpaceOnUse" xlink:href="#e"/><linearGradient id="h" x1="-73.7" x2="-76.7" y1="25.6" y2="17.7" gradientTransform="translate(40.3 -1)" gradientUnits="userSpaceOnUse" xlink:href="#e"/><linearGradient id="m" x1="19.3" x2="19.3" y1="28.6" y2="38.9" gradientTransform="translate(0 -1)" gradientUnits="userSpaceOnUse" xlink:href="#f"/></defs><g transform="matrix(.74124 -.0737 .07024 .70645 -.2 3.3)"><ellipse cx="4" cy="19.3" fill="url(#g)" rx="3.1" ry="7"/><ellipse cx="4.6" cy="19.3" fill="#eacb8b" rx="2.4" ry="5.3"/><ellipse cx="-36" cy="19.3" fill="url(#h)" rx="3.1" ry="7" transform="scale(-1 1)"/><ellipse cx="-35.1" cy="19.3" fill="#eacb8b" rx="2.4" ry="5.3" transform="scale(-1 1)"/><path fill="#703800" d="M28.2-.5c-4.8 3-7.4 2.7-16.6 8.4-1.7.7-3 1.6-4.7 3.3A10 10 0 0 0 4.6 18v5.4c-1.3 1-1.4 3-1.4 5.2.9 8.3 7.3 11.9 16.6 11.9 9.4 0 15.7-3.6 16.6-12 0-2-.1-4-1.4-5.1V18c0-3.7-1.8-8.7-8.5-10.7 1-2.2 1.4-6 1.7-7.8z"/><path fill="url(#i)" d="M28.2-.5c-4.8 3-7.4 2.7-16.6 8.4-1.7.7-3 1.6-4.7 3.3A10 10 0 0 0 4.6 18v5.4c-1.3 1-1.4 3-1.4 5.2.9 8.3 7.3 11.9 16.6 11.9 9.4 0 15.7-3.6 16.6-12 0-2-.1-4-1.4-5.1V18c0-3.7-1.8-8.7-8.5-10.7 1-2.2 1.4-6 1.7-7.8z"/><path fill="url(#j)" d="M13.7 11.5c-4 0-6.7 3.5-6.6 7.5v4.4c-1 1-1.6 3.9-1.6 5.7.7 7 6.5 9 14.3 9 7.8 0 13.7-2 14.4-9 0-1.8-.6-4.7-1.7-5.7V19c0-4-2.5-7.5-6.6-7.5-2.5 0-4 1.4-5.5 3.4-.7 1-.6 1-1.2 0-1.5-2-3-3.4-5.5-3.4z"/><rect width="4.8" height="7.5" x="13.6" y="17.9" fill="#1f4d11" ry="2.4"/><path fill="#703800" fill-rule="evenodd" d="M28.2-.5c-3 4-7.4 5.2-9.2 9.3 3-.6 5.3-.2 7.8-2 1-2.4 1-4.9 1.4-7.3z"/><path fill="#994d00" fill-rule="evenodd" d="M18.5 9c5.4-1 8-2.1 14-4.4-3.6 8.2-4.1 4.5-14 4.3z"/><path fill="#703800" fill-rule="evenodd" d="M32.5 4.6l-4 4.5c.5 0 1 0 1.5-.2 1.2-1.4 1.8-2.8 2.5-4.3z"/><rect width="4.8" height="7.5" x="13.6" y="17.9" fill="url(#k)" ry="2.4"/><rect width="4.8" height="7.5" x="21.5" y="17.9" fill="#1f4d11" ry="2.4"/><rect width="4.8" height="7.5" x="21.5" y="17.9" fill="url(#l)" ry="2.4"/><path fill="#fff" d="M15.6 20.3c-.2.7-.3 1.3-.6 1.2-.3-.1-.4-.8-.2-1.5.2-.6.7-1.1 1-1 .3.1 0 .7-.2 1.3z"/><path fill="url(#m)" d="M13.7 11.5c-4 0-6.7 3.5-6.6 7.5v4.4c-1 1-1.6 3.9-1.6 5.7.7 7 6.5 9 14.3 9 7.8 0 13.7-2 14.4-9 0-1.8-.6-4.7-1.7-5.7V19c0-4-2.5-7.5-6.6-7.5-2.5 0-4 1.4-5.5 3.4-.7 1-.6 1-1.2 0-1.5-2-3-3.4-5.5-3.4z"/><path fill="#fff" d="M23.5 20.3c-.2.7-.3 1.3-.6 1.2-.4-.1-.4-.8-.2-1.5.2-.6.6-1.1 1-1 .3.1 0 .7-.2 1.3z"/><path fill="none" stroke="#580504" d="M9.9 27.8c0 5.6 20 5.5 20-.3"/><path fill="none" stroke="#a80908" d="M9.9 27.3c0 5.6 20 5.5 20-.3"/></g></svg>