<svg xmlns="http://www.w3.org/2000/svg" viewBox="0 0 690 1380" width="50"><path fill="#007a33" d="M359 599V425a114 114 0 0 1 114-114h186l-18 18h-84a114 114 0 0 0-114 114v72l-84 84"/><path fill="#97999f" d="M359-1v174a114 114 0 0 0 114 114h186l-78-78h-90a108 108 0 0 1-108-108V23L359-1m-24 696V521a114 114 0 0 0-114-114H35l78 78h90a108 108 0 0 1 108 108v78l24 24m148 242-1 4.5h1.5a10 10 0 0 1 7.5 3c2 1.5 3 4 3 7 0 4-2 7-5 9.5-4 3.5-9.5 4.5-14.5 4.5-4.5 0-9-.5-13.5-2.5l-1-1 2.5-7.5 1 .5 9 1.5c2.5 0 6 0 8-1.5 1-.5 1.5-1.5 1.5-2.5l-.5-1.5-3-1-5.5 1h-1.5l2-14.5c-14-2-26.5-7.5-37-17.5a61 61 0 0 1-18.5-45v-1.5a58 58 0 0 1 8-30.5c5-9.5 13-17.5 22.5-22.5 9-5.5 20-8 30.5-8h3.5c10.5 0 21 1.5 30.5 6.5a65 65 0 0 1 22 18.5l.5 1-11 8.5-.5-1c-5-6.5-11-11.5-18-15a53.5 53.5 0 0 0-48.5 2l-.5.5c-7.5 4-13.5 10-17.5 17.5a44 44 0 0 0-6.5 23.5v.5c0 9 2 17 6.5 24.5a48 48 0 0 0 18 18A51 51 0 0 0 483 923a53 53 0 0 0 23-5c7-3.5 13-8.5 18-15l.5-1 11 8.5-.5 1a63.5 63.5 0 0 1-50.5 25.5H483zm0 0zM104.5 814H119v88c.5 3.5 2 7.5 4 11 5 7 13.5 10 21.5 10 8.5 0 17-3 22-10 2-3.5 3-7.5 3.5-11l.5-5.5V814h14v72c0 7.5 0 18.5-2 25.5-2.5 7.5-7 14-14 18.5s-15.5 7-24 7-16.5-2.5-23.5-7-11.5-11-14-18.5c-2.5-7-2.5-18-2.5-25.5zm0 0zm277 0h14v120h-14zm0 0zM59 814h14v80.5c0 7.5 0 19-3 26-2 5-5 9-10 12S49.5 937 43.5 937c-5 0-9.5-1-14.5-3a71 71 0 0 1-16.5-10.5L20 912c5.5 4 10.5 7.5 16 10l7.5 1.5c3 0 6-1 8.5-2.5 2.5-2 4.5-4.5 5.5-7.5 1.5-5 1.5-14 1.5-19.5zm0 0zm143 96.5 12-7.5 1 1.5c4.5 8.5 12 18.5 23 18.5 4 0 7.5-1 10.5-2.5s6-4 7.5-7 2.5-6 2.5-9c0-4-1.5-8-3.5-11-5-7-13.5-13.5-20-18.5l-12-9.5c-2-2-5-4.5-6.5-7A31 31 0 0 1 210 840c0-5 1-10 4-14.5 2.5-4.5 6-8 10.5-10.5a33 33 0 0 1 15-3.5c6 0 11.5 1 16.5 4 6 3.5 11.5 10 15.5 15.5l.5 1-11.5 8.5-.5-1c-3-3.5-7-8.5-11-11-3-2-6-3-9.5-3-4 0-8 1.5-11 4a15 15 0 0 0-4 10c0 2.5.5 4.5 1.5 7l5.5 7.5 5 4 10 7.5A83.9 83.9 0 0 1 268 886a33 33 0 0 1 5.5 18c0 9-3.5 17-10 23l-7 5.5c-5 3-11 4.5-17 4.5h-.5c-7 0-14-2-20-6a55 55 0 0 1-16-19.5zm0 0zM332 828v106h-14V828h-26.5v-14H359v14zm0 0zm295 67.5h-48.5L560 934h-15.5l56-120h4.5l55.5 120h-15zm0 0zm-6-14L602.5 843l-18 38.5zm0 0zM14.5 1008v34.5h47v14h-47v57.5H.5V994h61v14zm0 0zm88 0v34.5h55v14h-55v43.5h55v14h-69V994h69v14zm0 0zm220 0v34.5H378v14h-55.5v43.5H378v14h-69.5V994H378v14zm0 0zm323 92H691v14h-59.5V994h14zm0 0zm-221-40.5h-5v54.5h-14V994H430l16.5.5c3 .5 7 .5 10 1.5a30 30 0 0 1 17.5 10.5 32.5 32.5 0 0 1 0 40.5 30 30 0 0 1-17.5 10.5c-4.5 1.5-10 1.5-15 1.5l42.5 55h-17.5zm0 0zm-5-51.5v37.5H439c4.5 0 12 0 16.5-2 3.5-1.5 6-3.5 8-6.5 4-6 4-14.5 0-20.5-2-3-4.5-5-8-6.5-4.5-1.5-12-2-16.5-2zm0 0zm-235 106V994H223c11.5 0 25 1.5 35 6.5 8.5 5 15.5 12 20 20.5 5.5 10 8 22 8 33s-2.5 23.5-8 33a46.5 46.5 0 0 1-20 20.5c-10 5-23.5 6.5-35 6.5zm0 0zm14-106.5v93h12c7 0 14 0 20.5-1 4.5 0 9-.5 13-2a36.5 36.5 0 0 0 20.5-15c5-8 7-19 7-28.5s-2-20.5-7-28.5a41.5 41.5 0 0 0-13-11.5c-2-1.5-5-2.5-7.5-3.5l-13-2-20.5-1zm0 0zm381.5 68h-49l-18.5 38.5h-15l56-120h4l56 120h-15zm0 0zm-6.5-14-18-38.5-18 38.5zm-184 131.5c-8 0-16 1.5-24 3.5a48 48 0 0 0-32 26 58.5 58.5 0 0 0-5 22.5 49.5 49.5 0 0 0 24.5 43.5l14 7.5 13.5 6c5 2 9 4 12.5 6.5s6.5 5 8.5 8c2 2.5 3.5 6 3.5 10a26.5 26.5 0 0 1-2 9.5c-1.5 3-3.5 5.5-5.5 7.5a25 25 0 0 1-9 4.5c-4 1-8.5 1.5-13 1.5a66.5 66.5 0 0 1-30-7.5l-9-5-5.5-2.5-2.5 1a2.5 2.5 0 0 0-1.5 2.5l-1 5-.5 7 1 10c.5 2 1 4 2.5 5 1 1.5 3 2.5 6 4.5l10 4.5 14 3.5a95 95 0 0 0 43-2c8-2.5 15.5-6 21.5-11a48.5 48.5 0 0 0 14-17.5 57.4 57.4 0 0 0 5.5-25v-1a49 49 0 0 0-23.5-41l-1-.5-14-8-14.5-6a57 57 0 0 1-12-6.5 31.5 31.5 0 0 1-9-8 16 16 0 0 1-3-10l1.5-7.5c1-2.5 2.5-4.5 4.5-6 1.5-2 4-3 7-4s6.5-1.5 10.5-1.5c5 0 10 .5 14 1.5l11.5 4.5 8 4c2 1.5 4 2 5 2l2.5-1 1-2.5 1-4.5v-13l-.5-4-1-2.5c0-1-1-1.5-2-2.5-.5-1-2.5-2-5.5-3.5l-10-3.5c-3.5-1.5-7.5-2-12-3l-12-1zm156 .5a95 95 0 0 0-33.5 6c-10 4-19 10.5-26 18.5a82.5 82.5 0 0 0-17.5 29.5c-4 12-6 25.5-6 41 0 15 2 28 5.5 39.5a83 83 0 0 0 16 28.5 70 70 0 0 0 25.5 17 91.5 91.5 0 0 0 76-5l6-4 2-3 1-3 1-4v-6l-.5-8-.5-4.5-1.5-2-2-.5c-1.5 0-3 .5-5.5 2l-8 5-12.5 5.5c-4.5 1.5-10 2-16.5 2a39.5 39.5 0 0 1-34-15c-4-5-7-11-9.5-19a110 110 0 0 1-3-27.5c0-9.5 1-18 3-26a58 58 0 0 1 9-19.5 39 39 0 0 1 14.5-12.5 39.5 39.5 0 0 1 19-4.5c10 0 20 3 29 8 3 2 6 3.5 8 5.5 2 1.5 4 2.5 5.5 2.5l2-1 2-2.5 1-5V1218l-1-4.5-1-3.5-2.5-3-6.5-4.5a76 76 0 0 0-38.5-9zm-394 2-9 .5-5.5 1-3 1.5-1 2.5v123c0 4.5 0 8.5-1 11.5l-2.5 6.5a8.5 8.5 0 0 1-5 3.5c-2 1-4 1.5-6.5 1.5l-6.5-1-5-2-3.5-1.5c-1-1-2-1-3-1l-2 .5c-1 .5-1.5 1.5-1.5 3l-1 5v14l.5 4 1 2.5 1.5 2 3.5 2 6 2 7.5 1.5 8 .5a58 58 0 0 0 22-3.5 39 39 0 0 0 14.5-10.5c3.5-4.5 6-10 7.5-16.5s2.5-14 2.5-22v-125l-1-2.5-3-1.5-6-1zm69 1a12.5 12.5 0 0 0-7.5 2.5c-2.5 2-3.5 5-3.5 9v162.5l1 3 3 1.5 5.5 1.5 9 .5 9-.5 5.5-1.5 3-1.5 1-3V1304h55l2-1 2-2.5 1-4.5.5-7-.5-7-1-4.5-2-2-2-1h-55v-48H305l2-1 2-2.5 1-4.5.5-7-.5-7-1-5-2-2.5-2-.5z"/><path fill="#002f6c" d="M335 95v174a114 114 0 0 1-114 114H35l18-18h84a114 114 0 0 0 114-114v-72l84-84"/></svg>
